<?xml version="1.0" encoding="UTF-8" standalone="no"?><!DOCTYPE svg PUBLIC "-//W3C//DTD SVG 1.1//EN" "http://www.w3.org/Graphics/SVG/1.1/DTD/svg11.dtd"><svg width="100%" height="100%" viewBox="0 0 64 64" version="1.1" xmlns="http://www.w3.org/2000/svg" xmlns:xlink="http://www.w3.org/1999/xlink" xml:space="preserve" xmlns:serif="http://www.serif.com/" style="fill-rule:evenodd;clip-rule:evenodd;stroke-linecap:round;stroke-linejoin:round;stroke-miterlimit:1.5;"><path d="M17.272,19.443c6.035,-0.582 10.759,-5.673 10.759,-11.858c-0,-1.843 -0.42,-3.588 -1.168,-5.146c1.668,-0.289 3.385,-0.439 5.137,-0.439c16.557,-0 30,13.443 30,30c0,16.557 -13.443,30 -30,30c-16.557,-0 -30,-13.443 -30,-30c0,-0.925 0.042,-1.84 0.124,-2.743c1.061,0.31 2.183,0.476 3.345,0.476c6.025,0 11.011,-4.482 11.803,-10.29Z" style="fill:#d5944b;stroke:#26251d;stroke-width:4px;"/><circle cx="17.927" cy="41.07" r="3.488" style="fill:#443017;"/><circle cx="31.33" cy="30.835" r="3.488" style="fill:#443017;"/><circle cx="32" cy="49.883" r="3.488" style="fill:#443017;"/><circle cx="43.952" cy="41.07" r="3.488" style="fill:#443017;"/><circle cx="49.092" cy="27.347" r="3.488" style="fill:#443017;"/><circle cx="38.306" cy="16.056" r="3.488" style="fill:#443017;"/></svg>