<?xml version="1.0" encoding="UTF-8" standalone="yes"?>
<svg width="100%" height="100%" viewBox="0 0 16 16" version="1.1" xmlns="http://www.w3.org/2000/svg">
<g><path style="fill:#999" d="M0,15.967l3.553,-0.673l-2.821,-2.821l-0.732,3.494Z" /><path style="fill:#999" d="M13.062,6.49l-3.515,-3.504l-7.97,7.938c0,-0 0.769,-0.082 1.307,0.456c0.59,0.59 0.456,1.307 0.456,1.307c0,-0 0.781,-0.071 1.307,0.456c0.545,0.545 0.456,1.307 0.456,1.307l7.959,-7.96Z" /><path style="fill:#999" d="M10.945,1.556l1.304,-1.305c0.292,-0.291 0.762,-0.291 1.055,0.001l2.471,2.471c0.292,0.292 0.292,0.763 0,1.054l-1.304,1.305l-3.526,-3.526Z" /></g></svg>