<?xml version="1.0" encoding="UTF-8" standalone="yes"?><svg width="100%" height="100%" viewBox="0 0 12 12" version="1.1" xmlns="http://www.w3.org/2000/svg"><path style="fill:#999" d="M1.601,1.057c0.783,-0.659 1.794,-1.057 2.897,-1.057c2.483,0 4.498,2.014 4.498,4.495c0,0.991 -0.322,1.909 -0.867,2.652l3.871,3.872l-0.981,0.981l-3.873,-3.873c-0.743,0.542 -1.658,0.862 -2.648,0.862c-2.482,0 -4.498,-2.014 -4.498,-4.494c-0,-1.203 0.474,-2.297 1.245,-3.104l1.114,0.78c-0.628,0.577 -1.022,1.405 -1.022,2.324c0,1.743 1.417,3.158 3.161,3.158c1.745,-0 3.161,-1.415 3.161,-3.158c-0,-1.743 -1.416,-3.159 -3.161,-3.159c-0.818,0 -1.564,0.312 -2.126,0.822l-0.771,-1.101Z"/></svg>