<?xml version="1.0" encoding="UTF-8" standalone="yes"?>
<svg width="100%" height="100%" viewBox="0 0 50 50" version="1.1" xmlns="http://www.w3.org/2000/svg" xmlns:xlink="http://www.w3.org/1999/xlink" style="font-family:'ArialMT', 'Arial', sans-serif;font-size:24px;"><path d="M25,0c13.798,0 25,11.202 25,25c0,13.798 -11.202,25 -25,25c-13.798,0 -25,-11.202 -25,-25c0,-13.798 11.202,-25 25,-25Zm0,1.5c12.97,0 23.5,10.53 23.5,23.5c0,12.97 -10.53,23.5 -23.5,23.5c-12.97,0 -23.5,-10.53 -23.5,-23.5c0,-12.97 10.53,-23.5 23.5,-23.5Z" style="fill:none;stroke:#a7d7f9;"/><g transform="matrix(0.66622,0,0,0.66622,-26.1773,3.65638)"><text x="55.706px" y="25.855px">Site</text><text x="49.689px" y="50.64px">Logo</text></g></svg>