<?xml version="1.0" encoding="UTF-8" standalone="no"?><!DOCTYPE svg PUBLIC "-//W3C//DTD SVG 1.1//EN" "http://www.w3.org/Graphics/SVG/1.1/DTD/svg11.dtd"><svg width="24px" height="24px" viewBox="0 0 100 100" version="1.1" xmlns="http://www.w3.org/2000/svg" xml:space="preserve" style="fill-rule:evenodd;clip-rule:evenodd;"><path d="M8.333,24.434l0,53.066c0,3.219 2.614,5.833 5.833,5.833l71.668,0c3.219,0 5.833,-2.614 5.833,-5.833l0,-46.667c0,-3.219 -2.614,-5.833 -5.833,-5.833l-37.51,-0l0,-0.566c0,-4.287 -3.48,-7.767 -7.766,-7.767l-24.458,0c-4.287,0 -7.767,3.48 -7.767,7.767Zm77.084,9.108c0,-1.265 -1.027,-2.292 -2.292,-2.292l-66.25,0c-1.265,0 -2.292,1.027 -2.292,2.292l0,41.249c0,1.265 1.027,2.292 2.292,2.292l66.25,-0c1.265,-0 2.292,-1.027 2.292,-2.292l0,-41.249Z" style="fill:#777;"/></svg>