<?xml version="1.0" encoding="UTF-8" standalone="no"?><!DOCTYPE svg PUBLIC "-//W3C//DTD SVG 1.1//EN" "http://www.w3.org/Graphics/SVG/1.1/DTD/svg11.dtd"><svg width="24px" height="24px" viewBox="0 0 100 100" version="1.1" xmlns="http://www.w3.org/2000/svg" xml:space="preserve"><path d="M8.333,24.348l0,53.152c0,3.22 2.614,5.833 5.834,5.833l71.666,0c3.22,0 5.834,-2.613 5.834,-5.833l-0,-46.667c-0,-3.219 -2.614,-5.833 -5.834,-5.833l-37.39,-0l0,-0.652c0,-4.24 -3.442,-7.681 -7.681,-7.681l-24.748,-0c-4.239,-0 -7.681,3.441 -7.681,7.681Zm77.084,9.194c-0,-1.265 -1.027,-2.292 -2.292,-2.292l-66.25,0c-1.265,0 -2.292,1.027 -2.292,2.292l0,41.25c0,1.264 1.027,2.291 2.292,2.291l66.25,0c1.265,0 2.292,-1.027 2.292,-2.291l-0,-41.25Z" style="fill:#777;"/></svg>