<?xml version="1.0" encoding="UTF-8" standalone="no"?><!DOCTYPE svg PUBLIC "-//W3C//DTD SVG 1.1//EN" "http://www.w3.org/Graphics/SVG/1.1/DTD/svg11.dtd"><svg width="24px" height="24px" viewBox="0 0 100 100" version="1.1" xmlns="http://www.w3.org/2000/svg" xml:space="preserve"><circle cx="16.525" cy="50" r="5.208" style="fill:#333;"/><circle cx="16.525" cy="24.781" r="5.208" style="fill:#333;"/><circle cx="16.525" cy="75.089" r="5.208" style="fill:#333;"/><path d="M83.36,45.833c2.288,0.015 4.14,1.876 4.14,4.167c0,2.3 -1.867,4.167 -4.167,4.167l-50.082,-0c-2.299,-0 -4.166,-1.867 -4.166,-4.167c-0,-2.3 1.867,-4.167 4.166,-4.167l50.082,0l0.027,0Z" style="fill:#333;"/><path d="M83.36,70.922c2.288,0.015 4.14,1.876 4.14,4.167c0,2.3 -1.867,4.167 -4.167,4.167l-50.082,-0c-2.299,-0 -4.166,-1.867 -4.166,-4.167c-0,-2.3 1.867,-4.167 4.166,-4.167l50.082,0l0.027,0Z" style="fill:#333;"/><path d="M83.36,20.615c2.288,0.014 4.14,1.876 4.14,4.166c0,2.3 -1.867,4.167 -4.167,4.167l-50.082,-0c-2.299,-0 -4.166,-1.867 -4.166,-4.167c-0,-2.299 1.867,-4.166 4.166,-4.166l50.082,-0l0.027,-0Z" style="fill:#333;"/></svg>