<?xml version="1.0" encoding="UTF-8" standalone="no"?><!DOCTYPE svg PUBLIC "-//W3C//DTD SVG 1.1//EN" "http://www.w3.org/Graphics/SVG/1.1/DTD/svg11.dtd"><svg width="24px" height="24px" viewBox="0 0 100 100" version="1.1" xmlns="http://www.w3.org/2000/svg" xml:space="preserve"><rect x="27.332" y="81.153" width="58.539" height="4.36" style="fill:#333;"/><path d="M69.142,74.286l0,-7.3c-3.868,5.615 -9.124,8.423 -15.769,8.423c-2.933,-0 -5.67,-0.562 -8.212,-1.685c-2.543,-1.123 -4.43,-2.534 -5.662,-4.234c-1.233,-1.701 -2.098,-3.783 -2.597,-6.247c-0.344,-1.654 -0.515,-4.274 -0.515,-7.862l-0,-30.79l8.423,0l-0,27.562c-0,4.398 0.171,7.362 0.514,8.89c0.531,2.215 1.654,3.954 3.369,5.218c1.716,1.263 3.838,1.895 6.364,1.895c2.527,-0 4.898,-0.647 7.113,-1.942c2.215,-1.295 3.783,-3.057 4.703,-5.288c0.92,-2.23 1.38,-5.467 1.38,-9.709l0,-26.626l8.423,0l0,49.695l-7.534,-0Z" style="fill:#333;"/></svg>