<?xml version="1.0" encoding="UTF-8" standalone="no"?><!DOCTYPE svg PUBLIC "-//W3C//DTD SVG 1.1//EN" "http://www.w3.org/Graphics/SVG/1.1/DTD/svg11.dtd"><svg width="24px" height="24px" viewBox="0 0 100 100" version="1.1" xmlns="http://www.w3.org/2000/svg" xml:space="preserve"><path d="M87.522,19.851l-0.623,2.673c-0.757,0.049 -1.709,0.171 -2.856,0.366c-1.148,0.196 -2.014,0.379 -2.6,0.55c-1.001,0.317 -1.74,0.811 -2.216,1.483c-0.476,0.671 -0.812,1.422 -1.007,2.254l-8.371,36.368c-0.097,0.411 -0.177,0.8 -0.238,1.167c-0.061,0.366 -0.092,0.646 -0.092,0.842c0,1.098 0.47,1.91 1.41,2.435c0.94,0.525 2.692,0.91 5.256,1.154l-0.623,2.673l-28.111,-0l0.623,-2.673c0.635,-0.049 1.538,-0.122 2.71,-0.22c1.172,-0.098 2.014,-0.244 2.527,-0.44c0.952,-0.341 1.684,-0.83 2.197,-1.464c0.513,-0.635 0.867,-1.392 1.062,-2.271l4.189,-18.201l-21.82,0l-3.928,16.995c-0.098,0.413 -0.177,0.803 -0.239,1.17c-0.061,0.366 -0.091,0.646 -0.091,0.842c-0,1.098 0.452,1.904 1.355,2.417c0.903,0.512 2.624,0.903 5.163,1.172l-0.622,2.673l-28.099,-0l0.623,-2.673c0.61,-0.025 1.52,-0.104 2.728,-0.238c1.209,-0.135 2.106,-0.299 2.692,-0.495c0.952,-0.317 1.678,-0.805 2.179,-1.465c0.5,-0.659 0.848,-1.416 1.043,-2.27l8.399,-36.328c0.122,-0.513 0.207,-0.94 0.256,-1.282c0.049,-0.342 0.074,-0.598 0.074,-0.769c-0,-1.025 -0.519,-1.825 -1.557,-2.399c-1.038,-0.573 -2.728,-1.031 -5.072,-1.373l0.622,-2.673l28.106,-0l-0.623,2.673c-0.756,0.049 -1.678,0.171 -2.765,0.366c-1.086,0.196 -1.934,0.379 -2.545,0.55c-1.025,0.317 -1.77,0.824 -2.234,1.519c-0.463,0.696 -0.793,1.437 -0.988,2.223l-3.648,15.777l21.817,-0l3.363,-14.612c0.122,-0.513 0.207,-0.94 0.256,-1.282c0.049,-0.342 0.074,-0.598 0.074,-0.769c-0,-1.025 -0.501,-1.813 -1.502,-2.362c-1.001,-0.549 -2.661,-1.019 -4.981,-1.41l0.623,-2.673l28.104,-0Z" style="fill:#333;"/><path d="M97.931,60.053c0,0.131 -0.012,0.31 -0.036,0.538c-0.025,0.227 -0.062,0.48 -0.11,0.756c-0.049,0.277 -0.118,0.554 -0.208,0.831c-0.089,0.276 -0.199,0.528 -0.329,0.756c-0.131,0.228 -0.281,0.415 -0.452,0.562c-0.171,0.146 -0.37,0.22 -0.598,0.22l-19.922,-0c-0.261,-0 -0.456,-0.086 -0.586,-0.257c-0.13,-0.171 -0.195,-0.435 -0.195,-0.793c-0,-0.13 0.012,-0.314 0.036,-0.55c0.025,-0.236 0.065,-0.492 0.122,-0.769c0.057,-0.276 0.131,-0.553 0.22,-0.83c0.09,-0.276 0.199,-0.529 0.33,-0.756c0.13,-0.228 0.28,-0.416 0.451,-0.562c0.171,-0.146 0.362,-0.22 0.574,-0.22l19.922,0c0.26,0 0.456,0.09 0.586,0.269c0.13,0.179 0.195,0.447 0.195,0.805Z" style="fill:#333;"/></svg>