<?xml version="1.0" encoding="UTF-8" standalone="no"?><!DOCTYPE svg PUBLIC "-//W3C//DTD SVG 1.1//EN" "http://www.w3.org/Graphics/SVG/1.1/DTD/svg11.dtd"><svg width="24px" height="24px" viewBox="0 0 100 100" version="1.1" xmlns="http://www.w3.org/2000/svg" xml:space="preserve"><path d="M59.821,23.445c-0.156,0.873 -0.367,1.606 -0.632,2.199c-0.265,0.593 -0.616,1.068 -1.053,1.427c-0.437,0.359 -0.983,0.616 -1.638,0.772c-0.655,0.156 -1.45,0.234 -2.386,0.234c-0.905,0 -1.653,-0.078 -2.246,-0.234c-0.593,-0.156 -1.03,-0.413 -1.31,-0.772c-0.281,-0.359 -0.437,-0.834 -0.468,-1.427c-0.032,-0.593 0.031,-1.326 0.187,-2.199c0.187,-0.874 0.421,-1.599 0.702,-2.176c0.28,-0.577 0.631,-1.061 1.053,-1.451c0.421,-0.39 0.959,-0.655 1.614,-0.795c0.655,-0.141 1.451,-0.211 2.386,-0.211c0.905,0 1.646,0.07 2.223,0.211c0.577,0.14 1.014,0.405 1.31,0.795c0.297,0.39 0.46,0.874 0.492,1.451c0.031,0.577 -0.047,1.302 -0.234,2.176Zm-12.12,56.292c-0.062,0.25 -0.171,0.46 -0.327,0.632c-0.156,0.172 -0.39,0.32 -0.702,0.445c-0.312,0.124 -0.726,0.218 -1.24,0.28c-0.515,0.063 -1.147,0.094 -1.895,0.094c-0.78,-0 -1.412,-0.031 -1.896,-0.094c-0.483,-0.062 -0.857,-0.156 -1.123,-0.28c-0.265,-0.125 -0.436,-0.273 -0.514,-0.445c-0.078,-0.172 -0.086,-0.382 -0.024,-0.632l8.376,-42.114c0.031,-0.218 0.125,-0.421 0.281,-0.608c0.156,-0.187 0.39,-0.343 0.702,-0.468c0.312,-0.125 0.725,-0.219 1.24,-0.281c0.515,-0.062 1.162,-0.094 1.942,-0.094c0.749,0 1.365,0.032 1.848,0.094c0.484,0.062 0.858,0.156 1.123,0.281c0.265,0.125 0.437,0.281 0.515,0.468c0.078,0.187 0.101,0.39 0.07,0.608l-8.376,42.114Z" style="fill:#333;"/></svg>