<?xml version="1.0" encoding="UTF-8" standalone="no"?><!DOCTYPE svg PUBLIC "-//W3C//DTD SVG 1.1//EN" "http://www.w3.org/Graphics/SVG/1.1/DTD/svg11.dtd"><svg width="24px" height="24px" viewBox="0 0 100 100" version="1.1" xmlns="http://www.w3.org/2000/svg" xml:space="preserve"><path d="M64.251,55.56c0.435,1.174 0.653,2.526 0.653,4.056c-0,2.153 -0.398,4.071 -1.193,5.756c-0.796,1.684 -1.927,3.104 -3.393,4.258c-1.466,1.154 -3.213,2.028 -5.241,2.62c-2.028,0.593 -4.258,0.889 -6.691,0.889c-1.498,0 -2.925,-0.117 -4.282,-0.351c-1.357,-0.233 -2.574,-0.53 -3.65,-0.889c-1.076,-0.358 -1.989,-0.733 -2.737,-1.123c-0.749,-0.39 -1.295,-0.741 -1.638,-1.052c-0.343,-0.312 -0.593,-0.749 -0.749,-1.311c-0.156,-0.561 -0.234,-1.326 -0.234,-2.293c0,-0.592 0.031,-1.091 0.094,-1.497c0.062,-0.406 0.14,-0.733 0.234,-0.983c0.093,-0.249 0.226,-0.429 0.398,-0.538c0.171,-0.109 0.366,-0.164 0.584,-0.164c0.344,0 0.851,0.211 1.521,0.632c0.671,0.421 1.498,0.881 2.48,1.381c0.983,0.499 2.145,0.959 3.486,1.38c1.342,0.421 2.886,0.632 4.633,0.632c1.31,-0 2.496,-0.141 3.556,-0.421c1.061,-0.281 1.981,-0.695 2.761,-1.24c0.78,-0.546 1.381,-1.241 1.802,-2.083c0.421,-0.842 0.631,-1.84 0.631,-2.995c0,-1.185 -0.304,-2.183 -0.912,-2.994c-0.457,-0.61 -1.024,-1.166 -1.701,-1.67l9.588,0Zm-25.204,-8.333c-0.815,-0.878 -1.484,-1.896 -2.009,-3.053c-0.608,-1.341 -0.912,-2.948 -0.912,-4.82c-0,-1.653 0.319,-3.236 0.959,-4.749c0.639,-1.513 1.599,-2.839 2.878,-3.978c1.279,-1.138 2.878,-2.051 4.796,-2.737c1.919,-0.686 4.157,-1.029 6.715,-1.029c1.123,-0 2.246,0.093 3.369,0.28c1.123,0.187 2.137,0.421 3.042,0.702c0.904,0.281 1.676,0.585 2.316,0.913c0.64,0.327 1.123,0.616 1.451,0.865c0.327,0.25 0.546,0.468 0.655,0.655c0.109,0.188 0.187,0.398 0.234,0.632c0.046,0.234 0.093,0.523 0.14,0.866c0.047,0.343 0.07,0.764 0.07,1.263c0,0.531 -0.023,0.991 -0.07,1.381c-0.047,0.39 -0.125,0.709 -0.234,0.959c-0.109,0.25 -0.242,0.429 -0.398,0.538c-0.156,0.109 -0.327,0.164 -0.514,0.164c-0.281,-0 -0.687,-0.172 -1.217,-0.515c-0.53,-0.343 -1.217,-0.71 -2.059,-1.099c-0.842,-0.39 -1.833,-0.757 -2.971,-1.1c-1.139,-0.343 -2.441,-0.515 -3.908,-0.515c-1.31,0 -2.464,0.148 -3.462,0.445c-0.999,0.296 -1.817,0.717 -2.457,1.263c-0.639,0.546 -1.123,1.193 -1.451,1.942c-0.327,0.749 -0.491,1.56 -0.491,2.433c0,1.217 0.312,2.239 0.936,3.065c0.624,0.827 1.435,1.552 2.433,2.176c0.998,0.624 2.137,1.186 3.416,1.685c1.137,0.444 2.293,0.9 3.467,1.368l-14.724,0Z" style="fill:#333;"/><rect x="31.243" y="48.79" width="37.426" height="5.208" style="fill:#333;"/></svg>