<?xml version="1.0" encoding="UTF-8" standalone="no"?><!DOCTYPE svg PUBLIC "-//W3C//DTD SVG 1.1//EN" "http://www.w3.org/Graphics/SVG/1.1/DTD/svg11.dtd"><svg width="24px" height="24px" viewBox="0 0 100 100" version="1.1" xmlns="http://www.w3.org/2000/svg" xml:space="preserve"><path d="M83.36,45.833c2.288,0.015 4.14,1.876 4.14,4.167c0,2.3 -1.867,4.167 -4.167,4.167l-50.082,-0c-2.299,-0 -4.166,-1.867 -4.166,-4.167c-0,-2.3 1.867,-4.167 4.166,-4.167l50.082,0l0.027,0Z" style="fill:#333;"/><path d="M83.36,70.922c2.288,0.015 4.14,1.876 4.14,4.167c0,2.3 -1.867,4.167 -4.167,4.167l-50.082,-0c-2.299,-0 -4.166,-1.867 -4.166,-4.167c-0,-2.3 1.867,-4.167 4.166,-4.167l50.082,0l0.027,0Z" style="fill:#333;"/><path d="M83.36,20.615c2.288,0.014 4.14,1.876 4.14,4.166c0,2.3 -1.867,4.167 -4.167,4.167l-50.082,-0c-2.299,-0 -4.166,-1.867 -4.166,-4.167c-0,-2.299 1.867,-4.166 4.166,-4.166l50.082,-0l0.027,-0Z" style="fill:#333;"/><path d="M8.42,23.506l0.659,-3.125c3.019,-1.319 5.355,-2.853 7.007,-4.602l2.136,-0l-3.772,18.005l-3.528,-0l2.6,-12.402c-0.732,0.472 -1.576,0.903 -2.533,1.294c-0.956,0.39 -1.812,0.667 -2.569,0.83Z" style="fill:#333;"/><path d="M21.164,30.403l3.467,-0l-0.708,3.381l-3.467,-0l0.708,-3.381Z" style="fill:#333;"/><path d="M12.784,46.667l-3.43,-0.512c0.276,-1.66 0.921,-2.932 1.935,-3.815c1.013,-0.883 2.28,-1.324 3.802,-1.324c1.668,-0 2.979,0.451 3.931,1.355c0.952,0.903 1.428,2.05 1.428,3.442c-0,0.708 -0.147,1.418 -0.44,2.13c-0.293,0.712 -0.773,1.459 -1.44,2.24c-0.48,0.553 -1.265,1.337 -2.356,2.35c-1.09,1.013 -1.813,1.705 -2.167,2.075c-0.354,0.37 -0.693,0.763 -1.019,1.178l6.201,0l-0.659,3.198l-10.876,0c0.114,-0.879 0.372,-1.715 0.775,-2.508c0.403,-0.794 0.905,-1.532 1.507,-2.216c0.603,-0.683 1.705,-1.786 3.308,-3.308c1.205,-1.155 1.966,-1.908 2.283,-2.258c0.57,-0.635 0.96,-1.184 1.172,-1.648c0.212,-0.464 0.317,-0.883 0.317,-1.257c0,-0.603 -0.177,-1.091 -0.531,-1.465c-0.354,-0.375 -0.803,-0.562 -1.349,-0.562c-0.553,0 -1.037,0.21 -1.452,0.629c-0.415,0.419 -0.729,1.178 -0.94,2.276Z" style="fill:#333;"/><path d="M21.89,55.603l3.467,0l-0.708,3.381l-3.467,0l0.708,-3.381Z" style="fill:#333;"/><path d="M7.694,79.509l3.357,-0.402c0.138,0.952 0.388,1.611 0.75,1.977c0.362,0.366 0.845,0.55 1.447,0.55c0.797,-0 1.459,-0.269 1.983,-0.806c0.525,-0.537 0.788,-1.225 0.788,-2.063c-0,-0.733 -0.212,-1.312 -0.635,-1.74c-0.423,-0.427 -0.993,-0.641 -1.709,-0.641c-0.179,0 -0.366,0.017 -0.562,0.049l0.611,-2.917c0.122,0.016 0.24,0.024 0.354,0.024c0.936,0 1.648,-0.238 2.136,-0.714c0.488,-0.476 0.733,-1.121 0.733,-1.935c-0,-0.577 -0.165,-1.033 -0.495,-1.367c-0.329,-0.334 -0.763,-0.5 -1.3,-0.5c-0.504,-0 -0.956,0.185 -1.355,0.555c-0.399,0.37 -0.716,1.003 -0.952,1.898l-3.198,-0.635c0.407,-1.318 0.972,-2.331 1.696,-3.039c1.099,-1.058 2.45,-1.587 4.053,-1.587c1.644,0 2.893,0.458 3.748,1.373c0.854,0.916 1.282,2.012 1.282,3.29c-0,0.928 -0.273,1.766 -0.818,2.515c-0.546,0.748 -1.294,1.298 -2.246,1.648c0.756,0.398 1.314,0.915 1.672,1.55c0.358,0.635 0.537,1.298 0.537,1.99c0,1.318 -0.468,2.531 -1.404,3.637c-1.277,1.514 -2.925,2.271 -4.944,2.271c-1.513,-0 -2.76,-0.433 -3.741,-1.3c-0.981,-0.867 -1.577,-2.094 -1.788,-3.681Z" style="fill:#333;"/><path d="M22.134,80.803l3.467,0l-0.708,3.382l-3.467,-0l0.708,-3.382Z" style="fill:#333;"/></svg>