<?xml version="1.0" encoding="UTF-8" standalone="no"?><!DOCTYPE svg PUBLIC "-//W3C//DTD SVG 1.1//EN" "http://www.w3.org/Graphics/SVG/1.1/DTD/svg11.dtd"><svg width="24px" height="24px" viewBox="0 0 100 100" version="1.1" xmlns="http://www.w3.org/2000/svg" xml:space="preserve"><path d="M72.1,54.841c-0,3.712 -0.406,7.05 -1.217,10.014c-0.811,2.964 -1.981,5.49 -3.509,7.581c-1.529,2.09 -3.408,3.696 -5.639,4.819c-2.23,1.123 -4.765,1.685 -7.604,1.685c-1.404,-0 -2.714,-0.133 -3.931,-0.398c-1.216,-0.265 -2.378,-0.694 -3.486,-1.287c-1.107,-0.592 -2.199,-1.341 -3.275,-2.246c-1.077,-0.905 -2.176,-1.996 -3.299,-3.275l-0,4.539c-0,0.343 -0.086,0.631 -0.258,0.865c-0.171,0.234 -0.452,0.429 -0.842,0.585c-0.39,0.156 -0.912,0.265 -1.567,0.328c-0.656,0.062 -1.451,0.093 -2.387,0.093c-0.967,0 -1.77,-0.031 -2.41,-0.093c-0.639,-0.063 -1.154,-0.172 -1.544,-0.328c-0.39,-0.156 -0.663,-0.351 -0.819,-0.585c-0.156,-0.234 -0.234,-0.522 -0.234,-0.865l0,-61.534c0,-0.312 0.094,-0.593 0.281,-0.842c0.187,-0.25 0.507,-0.46 0.959,-0.632c0.453,-0.172 1.053,-0.304 1.802,-0.398c0.748,-0.093 1.7,-0.14 2.854,-0.14c1.154,-0 2.106,0.047 2.855,0.14c0.748,0.094 1.349,0.226 1.801,0.398c0.452,0.172 0.772,0.382 0.959,0.632c0.188,0.249 0.281,0.53 0.281,0.842l0,23.069c1.061,-1.06 2.121,-1.965 3.182,-2.714c1.061,-0.749 2.121,-1.365 3.182,-1.848c1.061,-0.484 2.153,-0.835 3.276,-1.053c1.123,-0.218 2.308,-0.328 3.556,-0.328c3.088,0 5.709,0.617 7.861,1.849c2.153,1.232 3.908,2.893 5.265,4.983c1.357,2.09 2.347,4.531 2.971,7.324c0.624,2.792 0.936,5.732 0.936,8.82Zm-12.213,0.842c-0,-1.778 -0.133,-3.494 -0.398,-5.147c-0.265,-1.653 -0.725,-3.119 -1.38,-4.399c-0.656,-1.279 -1.506,-2.3 -2.551,-3.064c-1.045,-0.765 -2.363,-1.147 -3.954,-1.147c-0.78,0 -1.544,0.109 -2.293,0.328c-0.748,0.218 -1.52,0.592 -2.316,1.123c-0.795,0.53 -1.614,1.216 -2.457,2.059c-0.842,0.842 -1.731,1.887 -2.667,3.135l0,13.851c1.654,2.121 3.237,3.735 4.75,4.843c1.513,1.107 3.096,1.661 4.749,1.661c1.529,-0 2.823,-0.39 3.884,-1.17c1.061,-0.78 1.942,-1.794 2.644,-3.041c0.702,-1.248 1.209,-2.668 1.521,-4.259c0.312,-1.591 0.468,-3.182 0.468,-4.773Z" style="fill:#333;"/></svg>