<?xml version="1.0" encoding="UTF-8" standalone="no"?><!DOCTYPE svg PUBLIC "-//W3C//DTD SVG 1.1//EN" "http://www.w3.org/Graphics/SVG/1.1/DTD/svg11.dtd"><svg width="24px" height="24px" viewBox="0 0 100 100" version="1.1" xmlns="http://www.w3.org/2000/svg" xml:space="preserve"><path d="M87.522,19.851l-0.623,2.673c-0.757,0.049 -1.709,0.171 -2.856,0.366c-1.148,0.196 -2.014,0.379 -2.6,0.55c-1.001,0.317 -1.74,0.811 -2.216,1.483c-0.476,0.671 -0.812,1.422 -1.007,2.254l-8.371,36.368c-0.097,0.411 -0.177,0.8 -0.238,1.167c-0.061,0.366 -0.092,0.646 -0.092,0.842c0,1.098 0.47,1.91 1.41,2.435c0.94,0.525 2.692,0.91 5.256,1.154l-0.623,2.673l-28.111,-0l0.623,-2.673c0.635,-0.049 1.538,-0.122 2.71,-0.22c1.172,-0.098 2.014,-0.244 2.527,-0.44c0.952,-0.341 1.684,-0.83 2.197,-1.464c0.513,-0.635 0.867,-1.392 1.062,-2.271l4.189,-18.201l-21.82,0l-3.928,16.995c-0.098,0.413 -0.177,0.803 -0.239,1.17c-0.061,0.366 -0.091,0.646 -0.091,0.842c-0,1.098 0.452,1.904 1.355,2.417c0.903,0.512 2.624,0.903 5.163,1.172l-0.622,2.673l-28.099,-0l0.623,-2.673c0.61,-0.025 1.52,-0.104 2.728,-0.238c1.209,-0.135 2.106,-0.299 2.692,-0.495c0.952,-0.317 1.678,-0.805 2.179,-1.465c0.5,-0.659 0.848,-1.416 1.043,-2.27l8.399,-36.328c0.122,-0.513 0.207,-0.94 0.256,-1.282c0.049,-0.342 0.074,-0.598 0.074,-0.769c-0,-1.025 -0.519,-1.825 -1.557,-2.399c-1.038,-0.573 -2.728,-1.031 -5.072,-1.373l0.622,-2.673l28.106,-0l-0.623,2.673c-0.756,0.049 -1.678,0.171 -2.765,0.366c-1.086,0.196 -1.934,0.379 -2.545,0.55c-1.025,0.317 -1.77,0.824 -2.234,1.519c-0.463,0.696 -0.793,1.437 -0.988,2.223l-3.648,15.777l21.817,-0l3.363,-14.612c0.122,-0.513 0.207,-0.94 0.256,-1.282c0.049,-0.342 0.074,-0.598 0.074,-0.769c-0,-1.025 -0.501,-1.813 -1.502,-2.362c-1.001,-0.549 -2.661,-1.019 -4.981,-1.41l0.623,-2.673l28.104,-0Z" style="fill:#333;"/><path d="M98.906,64.579c-0,1.172 -0.105,1.984 -0.315,2.438c-0.21,0.454 -0.452,0.681 -0.726,0.681l-20.714,-0c-0.274,-0 -0.511,-0.227 -0.712,-0.681c-0.201,-0.454 -0.301,-1.266 -0.301,-2.438c-0,-1.054 0.091,-1.83 0.274,-2.327c0.182,-0.498 0.429,-0.747 0.739,-0.747l20.714,0c0.328,0 0.584,0.249 0.767,0.747c0.182,0.497 0.274,1.273 0.274,2.327Zm-0,12.918c-0,1.171 -0.105,1.976 -0.315,2.416c-0.21,0.439 -0.452,0.658 -0.726,0.658l-20.714,0c-0.274,0 -0.511,-0.219 -0.712,-0.658c-0.201,-0.44 -0.301,-1.245 -0.301,-2.416c-0,-1.083 0.091,-1.874 0.274,-2.372c0.182,-0.497 0.429,-0.746 0.739,-0.746l20.714,-0c0.328,-0 0.584,0.249 0.767,0.746c0.182,0.498 0.274,1.289 0.274,2.372Z" style="fill:#333;"/></svg>