<?xml version="1.0" encoding="UTF-8" standalone="no"?><!DOCTYPE svg PUBLIC "-//W3C//DTD SVG 1.1//EN" "http://www.w3.org/Graphics/SVG/1.1/DTD/svg11.dtd"><svg width="24px" height="24px" viewBox="0 0 100 100" version="1.1" xmlns="http://www.w3.org/2000/svg" xml:space="preserve"><path d="M74.439,18.683l-33.174,33.175l5.845,5.845l34.207,-34.207l-0,20.432l8.266,-0l0,-33.511l-33.511,-0l0,8.266l18.367,0Z" style="fill:#333;"/><path d="M50,12.5l-30,0c-4.139,0 -7.5,3.361 -7.5,7.5l-0,60c-0,4.139 3.361,7.5 7.5,7.5l60,0c4.139,0 7.5,-3.361 7.5,-7.5l0,-30l-6.25,0l0,25c0,3.449 -2.801,6.25 -6.25,6.25l-50,0c-3.449,0 -6.25,-2.801 -6.25,-6.25l-0,-50c-0,-3.449 2.801,-6.25 6.25,-6.25l25,0l0,-6.25Z" style="fill:#333;"/></svg>