<?xml version="1.0" encoding="UTF-8" standalone="no"?><!DOCTYPE svg PUBLIC "-//W3C//DTD SVG 1.1//EN" "http://www.w3.org/Graphics/SVG/1.1/DTD/svg11.dtd"><svg width="24px" height="24px" viewBox="0 0 100 100" version="1.1" xmlns="http://www.w3.org/2000/svg" xml:space="preserve"><path id="Frame" d="M87.5,20.393c0,-4.139 -3.361,-7.5 -7.5,-7.5l-60,-0c-4.139,-0 -7.5,3.361 -7.5,7.5l-0,60c-0,4.139 3.361,7.5 7.5,7.5l60,0c4.139,0 7.5,-3.361 7.5,-7.5l0,-60Zm-6.25,1.895c-0,-1.724 -1.4,-3.124 -3.124,-3.124l-56.252,0c-1.724,0 -3.124,1.4 -3.124,3.124l-0,56.231c-0,1.724 1.4,3.124 3.124,3.124l56.252,-0c1.724,-0 3.124,-1.4 3.124,-3.124l-0,-56.231Z" style="fill:#333;fill-rule:evenodd;"/><path d="M27.098,66.726l12.018,-14.591l7.627,9.259l11.116,-15.094l15.043,20.426l-45.804,0Z" style="fill:#333;"/><circle cx="44" cy="45" r="3" style="fill:#333;"/></svg>