<?xml version="1.0" encoding="UTF-8" standalone="no"?><!DOCTYPE svg PUBLIC "-//W3C//DTD SVG 1.1//EN" "http://www.w3.org/Graphics/SVG/1.1/DTD/svg11.dtd"><svg width="24px" height="24px" viewBox="0 0 100 100" version="1.1" xmlns="http://www.w3.org/2000/svg" xml:space="preserve"><path d="M81.25,63.774l-2.808,15.787l-24.007,0l0,-2.767c1.649,-2.36 3.278,-4.733 4.887,-7.12c1.609,-2.387 2.913,-4.653 3.914,-6.796c1.135,-2.414 1.987,-4.733 2.555,-6.958c0.567,-2.224 0.851,-4.937 0.851,-8.138c0,-2.251 -0.237,-4.862 -0.71,-7.832c-0.474,-2.971 -1.265,-5.541 -2.375,-7.711c-1.515,-2.876 -3.409,-4.958 -5.682,-6.246c-2.273,-1.289 -4.885,-1.933 -7.834,-1.933c-2.95,0 -5.575,0.678 -7.875,2.035c-2.3,1.356 -4.153,3.418 -5.561,6.184c-1.109,2.143 -1.908,4.605 -2.395,7.386c-0.487,2.78 -0.73,5.486 -0.73,8.117c-0,2.984 0.297,5.69 0.892,8.118c0.595,2.428 1.447,4.781 2.555,7.06c1.055,2.251 2.4,4.584 4.035,6.998c1.636,2.415 3.211,4.693 4.725,6.836l-0,2.767l-24.129,0l-2.808,-15.787l2.808,-0c0.434,1.058 0.834,2.027 1.2,2.909c0.366,0.882 0.861,1.797 1.485,2.747c0.57,0.895 1.207,1.614 1.913,2.156c0.705,0.543 1.6,0.814 2.685,0.814l9.359,-0l-0,-1.343c-1.763,-1.98 -3.662,-4.198 -5.697,-6.653c-2.034,-2.455 -3.608,-4.591 -4.72,-6.408c-1.275,-2.062 -2.285,-4.334 -3.031,-6.816c-0.746,-2.482 -1.119,-5.134 -1.119,-7.955c-0,-3.119 0.637,-6.015 1.912,-8.687c1.275,-2.672 3.106,-5.093 5.493,-7.263c2.279,-2.062 5.066,-3.717 8.362,-4.965c3.296,-1.247 6.843,-1.871 10.641,-1.871c3.96,-0 7.575,0.63 10.844,1.892c3.268,1.261 6.056,2.936 8.361,5.025c2.306,2.116 4.09,4.537 5.351,7.263c1.262,2.726 1.892,5.595 1.892,8.606c0,2.821 -0.352,5.446 -1.058,7.874c-0.705,2.427 -1.722,4.74 -3.051,6.937c-1.357,2.198 -2.978,4.408 -4.863,6.633c-1.885,2.224 -3.75,4.354 -5.595,6.388l0,1.343l9.237,-0c1.004,-0 1.885,-0.278 2.645,-0.834c0.759,-0.556 1.41,-1.268 1.953,-2.136c0.624,-0.977 1.126,-1.913 1.505,-2.808c0.38,-0.895 0.773,-1.845 1.18,-2.848l2.808,-0Z" style="fill:#333;"/></svg>