<?xml version="1.0" encoding="UTF-8" standalone="no"?><!DOCTYPE svg PUBLIC "-//W3C//DTD SVG 1.1//EN" "http://www.w3.org/Graphics/SVG/1.1/DTD/svg11.dtd"><svg width="24px" height="24px" viewBox="0 0 100 100" version="1.1" xmlns="http://www.w3.org/2000/svg" xml:space="preserve"><g><path d="M57.057,69.547l-6.851,6.851c-7.438,7.438 -19.517,7.438 -26.955,-0c-7.439,-7.439 -7.439,-19.517 -0,-26.956l7.723,-7.723c7.443,-7.395 19.488,-7.38 26.912,0.044c1.042,1.042 1.938,2.175 2.689,3.375l-5.869,5.869c-0.522,-1.355 -1.316,-2.607 -2.387,-3.678c-4.519,-4.519 -12.272,-4.109 -17.321,0.911l-5.241,5.24c-5.047,5.048 -5.469,12.823 -0.94,17.352c4.529,4.528 12.304,4.107 17.351,-0.941l1.886,-1.885c2.852,1.245 5.949,1.759 9.003,1.541Z" style="fill:#333;"/><path d="M42.9,30.45l6.852,-6.852c7.441,-7.441 19.531,-7.432 26.982,0.019c7.451,7.452 7.46,19.542 0.02,26.982l-7.725,7.725c-7.445,7.396 -19.502,7.373 -26.938,-0.064c-1.044,-1.043 -1.942,-2.178 -2.694,-3.38l5.87,-5.87c0.524,1.357 1.319,2.61 2.392,3.683c4.527,4.527 12.287,4.122 17.337,-0.899l5.242,-5.242c5.049,-5.049 5.465,-12.831 0.928,-17.367c-4.536,-4.536 -12.318,-4.12 -17.367,0.929l-1.886,1.885c-2.856,-1.248 -5.956,-1.765 -9.013,-1.549Z" style="fill:#333;"/></g></svg>