<?xml version="1.0" encoding="UTF-8" standalone="no"?><!DOCTYPE svg PUBLIC "-//W3C//DTD SVG 1.1//EN" "http://www.w3.org/Graphics/SVG/1.1/DTD/svg11.dtd"><svg width="24px" height="24px" viewBox="0 0 100 100" version="1.1" xmlns="http://www.w3.org/2000/svg" xml:space="preserve"><path d="M87.5,20.393c0,-4.139 -3.361,-7.5 -7.5,-7.5l-60,-0c-4.139,-0 -7.5,3.361 -7.5,7.5l-0,60c-0,4.139 3.361,7.5 7.5,7.5l60,-0c4.139,-0 7.5,-3.361 7.5,-7.5l0,-60Zm-6.25,5c0,-3.45 -2.801,-6.25 -6.25,-6.25l-50,-0c-3.449,-0 -6.25,2.8 -6.25,6.25l-0,50c-0,3.449 2.801,6.25 6.25,6.25l50,-0c3.449,-0 6.25,-2.801 6.25,-6.25l0,-50Z" style="fill:#333;"/><path d="M27.098,66.726l12.018,-14.591l7.627,9.259l11.116,-15.094l15.043,20.426l-45.804,-0Z" style="fill:#333;"/><circle cx="44.058" cy="46.3" r="2.849" style="fill:#333;"/></svg>