<?xml version="1.0" encoding="UTF-8" standalone="no"?><!DOCTYPE svg PUBLIC "-//W3C//DTD SVG 1.1//EN" "http://www.w3.org/Graphics/SVG/1.1/DTD/svg11.dtd"><svg width="24px" height="24px" viewBox="0 0 100 100" version="1.1" xmlns="http://www.w3.org/2000/svg" xml:space="preserve" style="fill-rule:evenodd;clip-rule:evenodd;stroke-linecap:round;stroke-linejoin:round;stroke-miterlimit:1.5;"><g id="Layer1"><path d="M37.584,60.801c9.856,-0.551 30.428,-1.801 36.89,-22.354c6.31,-20.071 -12.455,-35.504 -21.583,-3.414c-7.141,25.102 4.479,33.807 14.15,33.807c6.215,-0 9.838,-3.634 12.994,-3.634c5.806,-0 6.717,2.532 6.827,6.276" style="fill:none;stroke:#333;stroke-width:4.17px;"/><rect x="10.385" y="79.301" width="79.23" height="4.129" style="fill:#333;"/><path d="M23.297,59.764l-5.879,-5.879l-2.92,2.92l5.879,5.879l-5.879,5.878l2.92,2.92l5.879,-5.878l5.878,5.878l2.92,-2.92l-5.879,-5.878l5.879,-5.879l-2.92,-2.92l-5.878,5.879Z" style="fill:#333;"/></g></svg>