<?xml version="1.0" encoding="UTF-8" standalone="no"?><!DOCTYPE svg PUBLIC "-//W3C//DTD SVG 1.1//EN" "http://www.w3.org/Graphics/SVG/1.1/DTD/svg11.dtd"><svg width="24px" height="24px" viewBox="0 0 100 100" version="1.1" xmlns="http://www.w3.org/2000/svg" xml:space="preserve"><path d="M83.333,50.026c0,9.203 -3.25,17.055 -9.751,23.556c-6.501,6.501 -14.353,9.751 -23.556,9.751c-9.202,0 -17.063,-3.25 -23.582,-9.751c-6.518,-6.501 -9.777,-14.353 -9.777,-23.556c-0,-9.237 3.259,-17.107 9.777,-23.608c6.519,-6.501 14.38,-9.751 23.582,-9.751c9.203,-0 17.055,3.25 23.556,9.751c6.501,6.501 9.751,14.371 9.751,23.608Zm-4.81,0c-0,-7.878 -2.78,-14.597 -8.34,-20.157c-5.56,-5.56 -12.279,-8.34 -20.157,-8.34c-7.878,0 -14.597,2.78 -20.157,8.34c-5.56,5.56 -8.34,12.279 -8.34,20.157c0,7.843 2.78,14.545 8.34,20.105c5.56,5.56 12.279,8.34 20.157,8.34c7.878,-0 14.597,-2.78 20.157,-8.34c5.56,-5.56 8.34,-12.262 8.34,-20.105Zm-37.072,-6.902c-0,1.151 -0.41,2.144 -1.229,2.981c-0.819,0.836 -1.821,1.254 -3.006,1.254c-1.151,0 -2.144,-0.418 -2.981,-1.254c-0.836,-0.837 -1.255,-1.83 -1.255,-2.981c0,-1.185 0.419,-2.187 1.255,-3.006c0.837,-0.82 1.83,-1.229 2.981,-1.229c1.185,-0 2.187,0.409 3.006,1.229c0.819,0.819 1.229,1.821 1.229,3.006Zm25.569,0c-0,1.151 -0.41,2.144 -1.229,2.981c-0.819,0.836 -1.822,1.254 -3.007,1.254c-1.15,0 -2.143,-0.418 -2.98,-1.254c-0.837,-0.837 -1.255,-1.83 -1.255,-2.981c0,-1.185 0.418,-2.187 1.255,-3.006c0.837,-0.82 1.83,-1.229 2.98,-1.229c1.185,-0 2.188,0.409 3.007,1.229c0.819,0.819 1.229,1.821 1.229,3.006Zm-32.366,17.621l3.241,-1.882c2.754,5.019 6.798,7.529 12.131,7.529c5.333,0 9.36,-2.51 12.079,-7.529l3.294,1.882c-1.743,3.312 -3.896,5.839 -6.458,7.582c-2.562,1.743 -5.534,2.614 -8.915,2.614c-3.416,0 -6.396,-0.871 -8.941,-2.614c-2.545,-1.743 -4.688,-4.27 -6.431,-7.582Z" style="fill:#333;"/></svg>